<mxfile host="app.diagrams.net" modified="2021-09-23T13:51:12.058Z" agent="5.0 (Windows NT 6.2; Win64; x64) AppleWebKit/537.36 (KHTML, like Gecko) Chrome/93.0.4577.82 Safari/537.36" etag="ArrJvkpbHoV_OgvF460P" version="15.3.0" type="github">
  <diagram id="kgpKYQtTHZ0yAKxKKP6v" name="Page-1">
    <mxGraphModel dx="341.29" dy="36.87" grid="0" gridSize="10" guides="1" tooltips="1" connect="1" arrows="1" fold="1" page="0" pageScale="1" pageWidth="850" pageHeight="1100" math="0" shadow="0">
      <root>
        <mxCell id="0" />
        <mxCell id="1" parent="0" />
        <mxCell id="KI45ebXhtf95SyPVIs9m-1" value="Subject" style="shape=umlLifeline;perimeter=lifelinePerimeter;whiteSpace=wrap;html=1;container=1;collapsible=0;recursiveResize=0;outlineConnect=0;fillColor=#CCFFCC;" vertex="1" parent="1">
          <mxGeometry x="30" y="70" width="100" height="630" as="geometry" />
        </mxCell>
        <mxCell id="KI45ebXhtf95SyPVIs9m-64" value="" style="html=1;points=[];perimeter=orthogonalPerimeter;" vertex="1" parent="KI45ebXhtf95SyPVIs9m-1">
          <mxGeometry x="45" y="400" width="10" height="80" as="geometry" />
        </mxCell>
        <mxCell id="KI45ebXhtf95SyPVIs9m-2" value="SecurityMananger" style="shape=umlLifeline;perimeter=lifelinePerimeter;whiteSpace=wrap;html=1;container=1;collapsible=0;recursiveResize=0;outlineConnect=0;fillColor=#99FFFF;" vertex="1" parent="1">
          <mxGeometry x="150" y="70" width="140" height="810" as="geometry" />
        </mxCell>
        <mxCell id="KI45ebXhtf95SyPVIs9m-11" value="" style="html=1;points=[];perimeter=orthogonalPerimeter;" vertex="1" parent="KI45ebXhtf95SyPVIs9m-2">
          <mxGeometry x="65" y="50" width="10" height="110" as="geometry" />
        </mxCell>
        <mxCell id="KI45ebXhtf95SyPVIs9m-14" value="login" style="html=1;verticalAlign=bottom;startArrow=oval;startFill=1;endArrow=block;startSize=8;" edge="1" parent="KI45ebXhtf95SyPVIs9m-2" source="KI45ebXhtf95SyPVIs9m-1">
          <mxGeometry x="-0.0243" y="20" width="60" relative="1" as="geometry">
            <mxPoint x="-135" y="120" as="sourcePoint" />
            <mxPoint x="60" y="120" as="targetPoint" />
            <mxPoint x="1" as="offset" />
          </mxGeometry>
        </mxCell>
        <mxCell id="KI45ebXhtf95SyPVIs9m-18" style="edgeStyle=orthogonalEdgeStyle;rounded=0;orthogonalLoop=1;jettySize=auto;html=1;" edge="1" parent="KI45ebXhtf95SyPVIs9m-2" source="KI45ebXhtf95SyPVIs9m-11" target="KI45ebXhtf95SyPVIs9m-11">
          <mxGeometry relative="1" as="geometry">
            <Array as="points">
              <mxPoint x="75" y="140" />
            </Array>
          </mxGeometry>
        </mxCell>
        <mxCell id="KI45ebXhtf95SyPVIs9m-19" value="&lt;pre style=&quot;font-family: &amp;#34;consolas&amp;#34; ; font-size: 1px&quot;&gt;authenticate&lt;/pre&gt;" style="edgeLabel;html=1;align=center;verticalAlign=middle;resizable=0;points=[];" vertex="1" connectable="0" parent="KI45ebXhtf95SyPVIs9m-18">
          <mxGeometry x="-0.22" relative="1" as="geometry">
            <mxPoint x="45" as="offset" />
          </mxGeometry>
        </mxCell>
        <mxCell id="KI45ebXhtf95SyPVIs9m-21" value="&lt;pre style=&quot;font-size: 1px ; font-family: &amp;#34;consolas&amp;#34;&quot;&gt;authenticate&lt;/pre&gt;" style="html=1;verticalAlign=bottom;startArrow=oval;startFill=1;endArrow=block;startSize=8;" edge="1" parent="KI45ebXhtf95SyPVIs9m-2" target="KI45ebXhtf95SyPVIs9m-20">
          <mxGeometry x="-0.022" y="20" width="60" relative="1" as="geometry">
            <mxPoint x="90" y="150" as="sourcePoint" />
            <mxPoint x="290" y="150" as="targetPoint" />
            <mxPoint as="offset" />
          </mxGeometry>
        </mxCell>
        <mxCell id="KI45ebXhtf95SyPVIs9m-55" value="" style="html=1;points=[];perimeter=orthogonalPerimeter;" vertex="1" parent="KI45ebXhtf95SyPVIs9m-2">
          <mxGeometry x="65" y="280" width="10" height="240" as="geometry" />
        </mxCell>
        <mxCell id="KI45ebXhtf95SyPVIs9m-62" value="" style="html=1;points=[];perimeter=orthogonalPerimeter;" vertex="1" parent="KI45ebXhtf95SyPVIs9m-2">
          <mxGeometry x="70" y="390" width="10" height="70" as="geometry" />
        </mxCell>
        <mxCell id="KI45ebXhtf95SyPVIs9m-63" value="&lt;pre style=&quot;font-family: &amp;#34;consolas&amp;#34; ; font-size: 10px&quot;&gt;createSubject&lt;/pre&gt;" style="edgeStyle=orthogonalEdgeStyle;html=1;align=left;spacingLeft=2;endArrow=block;rounded=0;entryX=1;entryY=0;" edge="1" target="KI45ebXhtf95SyPVIs9m-62" parent="KI45ebXhtf95SyPVIs9m-2">
          <mxGeometry relative="1" as="geometry">
            <mxPoint x="75" y="370" as="sourcePoint" />
            <Array as="points">
              <mxPoint x="105" y="370" />
            </Array>
          </mxGeometry>
        </mxCell>
        <mxCell id="KI45ebXhtf95SyPVIs9m-65" value="subject" style="html=1;verticalAlign=bottom;endArrow=open;dashed=1;endSize=8;" edge="1" parent="KI45ebXhtf95SyPVIs9m-2">
          <mxGeometry relative="1" as="geometry">
            <mxPoint x="65" y="500" as="sourcePoint" />
            <mxPoint x="-70" y="500" as="targetPoint" />
          </mxGeometry>
        </mxCell>
        <mxCell id="KI45ebXhtf95SyPVIs9m-20" value=":&lt;span style=&quot;background-color: rgb(255 , 255 , 255) ; font-family: &amp;#34;consolas&amp;#34; ; font-size: 12pt&quot;&gt;Authenticator&lt;/span&gt;" style="shape=umlLifeline;perimeter=lifelinePerimeter;whiteSpace=wrap;html=1;container=1;collapsible=0;recursiveResize=0;outlineConnect=0;fillColor=#7EA6E0;" vertex="1" parent="1">
          <mxGeometry x="320" y="70" width="125" height="580" as="geometry" />
        </mxCell>
        <mxCell id="KI45ebXhtf95SyPVIs9m-23" value="" style="html=1;points=[];perimeter=orthogonalPerimeter;" vertex="1" parent="KI45ebXhtf95SyPVIs9m-20">
          <mxGeometry x="57.5" y="110" width="10" height="80" as="geometry" />
        </mxCell>
        <mxCell id="KI45ebXhtf95SyPVIs9m-52" value="" style="html=1;points=[];perimeter=orthogonalPerimeter;" vertex="1" parent="KI45ebXhtf95SyPVIs9m-20">
          <mxGeometry x="57.5" y="260" width="10" height="130" as="geometry" />
        </mxCell>
        <mxCell id="KI45ebXhtf95SyPVIs9m-22" value="&lt;pre style=&quot;background-color: rgb(255 , 255 , 255) ; font-family: &amp;#34;consolas&amp;#34;&quot;&gt;&lt;font style=&quot;font-size: 11px&quot;&gt;Modular&lt;/font&gt;&lt;/pre&gt;&lt;pre style=&quot;background-color: rgb(255 , 255 , 255) ; font-family: &amp;#34;consolas&amp;#34;&quot;&gt;&lt;font style=&quot;font-size: 11px&quot;&gt;RealmAuthenticator&lt;/font&gt;&lt;/pre&gt;" style="shape=umlLifeline;perimeter=lifelinePerimeter;whiteSpace=wrap;html=1;container=1;collapsible=0;recursiveResize=0;outlineConnect=0;fillColor=#FFE599;" vertex="1" parent="1">
          <mxGeometry x="470" y="70" width="140" height="740" as="geometry" />
        </mxCell>
        <mxCell id="KI45ebXhtf95SyPVIs9m-35" value="" style="html=1;points=[];perimeter=orthogonalPerimeter;" vertex="1" parent="KI45ebXhtf95SyPVIs9m-22">
          <mxGeometry x="57.5" y="130" width="15" height="70" as="geometry" />
        </mxCell>
        <mxCell id="KI45ebXhtf95SyPVIs9m-36" value="&lt;pre style=&quot;font-family: &amp;#34;consolas&amp;#34; ; font-size: 10px&quot;&gt;doSingleRealmAuthentication&lt;/pre&gt;" style="edgeStyle=orthogonalEdgeStyle;html=1;align=left;spacingLeft=2;endArrow=block;rounded=0;" edge="1" parent="KI45ebXhtf95SyPVIs9m-22" source="KI45ebXhtf95SyPVIs9m-22">
          <mxGeometry x="-1" y="54" relative="1" as="geometry">
            <mxPoint x="80.5" y="110" as="sourcePoint" />
            <Array as="points">
              <mxPoint x="148" y="110" />
              <mxPoint x="148" y="150" />
            </Array>
            <mxPoint x="72.5" y="150" as="targetPoint" />
            <mxPoint x="-50" y="34" as="offset" />
          </mxGeometry>
        </mxCell>
        <mxCell id="KI45ebXhtf95SyPVIs9m-50" value="" style="html=1;points=[];perimeter=orthogonalPerimeter;" vertex="1" parent="KI45ebXhtf95SyPVIs9m-22">
          <mxGeometry x="65" y="230" width="10" height="180" as="geometry" />
        </mxCell>
        <mxCell id="KI45ebXhtf95SyPVIs9m-28" value="" style="edgeStyle=orthogonalEdgeStyle;rounded=0;orthogonalLoop=1;jettySize=auto;html=1;" edge="1" parent="1" source="KI45ebXhtf95SyPVIs9m-23" target="KI45ebXhtf95SyPVIs9m-35">
          <mxGeometry relative="1" as="geometry">
            <mxPoint x="530" y="210" as="targetPoint" />
            <Array as="points">
              <mxPoint x="400" y="225" />
              <mxPoint x="400" y="225" />
            </Array>
          </mxGeometry>
        </mxCell>
        <mxCell id="KI45ebXhtf95SyPVIs9m-29" value="&lt;pre style=&quot;font-family: &amp;#34;consolas&amp;#34;&quot;&gt;doAuthenticate&lt;/pre&gt;" style="edgeLabel;html=1;align=center;verticalAlign=middle;resizable=0;points=[];" vertex="1" connectable="0" parent="KI45ebXhtf95SyPVIs9m-28">
          <mxGeometry x="-0.1378" y="-1" relative="1" as="geometry">
            <mxPoint as="offset" />
          </mxGeometry>
        </mxCell>
        <mxCell id="KI45ebXhtf95SyPVIs9m-37" value=":simpleAccoutRealm" style="shape=umlLifeline;perimeter=lifelinePerimeter;whiteSpace=wrap;html=1;container=1;collapsible=0;recursiveResize=0;outlineConnect=0;fillColor=#FF99FF;" vertex="1" parent="1">
          <mxGeometry x="680" y="70" width="120" height="450" as="geometry" />
        </mxCell>
        <mxCell id="KI45ebXhtf95SyPVIs9m-47" value="" style="html=1;points=[];perimeter=orthogonalPerimeter;" vertex="1" parent="KI45ebXhtf95SyPVIs9m-37">
          <mxGeometry x="55" y="170" width="10" height="150" as="geometry" />
        </mxCell>
        <mxCell id="KI45ebXhtf95SyPVIs9m-48" value="&lt;pre style=&quot;font-family: &amp;#34;consolas&amp;#34; ; font-size: 10px&quot;&gt;doGetAuthenticationInfo&lt;/pre&gt;" style="html=1;verticalAlign=bottom;endArrow=block;entryX=0;entryY=0;" edge="1" target="KI45ebXhtf95SyPVIs9m-47" parent="1">
          <mxGeometry x="-0.1351" y="-30" relative="1" as="geometry">
            <mxPoint x="550" y="240" as="sourcePoint" />
            <mxPoint as="offset" />
          </mxGeometry>
        </mxCell>
        <mxCell id="KI45ebXhtf95SyPVIs9m-49" value="&lt;pre style=&quot;font-family: &amp;#34;consolas&amp;#34; ; font-size: 10px&quot;&gt;AuthenticationInfo&lt;/pre&gt;" style="html=1;verticalAlign=bottom;endArrow=open;dashed=1;endSize=8;exitX=-0.343;exitY=0.637;exitDx=0;exitDy=0;exitPerimeter=0;" edge="1" source="KI45ebXhtf95SyPVIs9m-47" parent="1">
          <mxGeometry relative="1" as="geometry">
            <mxPoint x="540" y="334" as="targetPoint" />
          </mxGeometry>
        </mxCell>
        <mxCell id="KI45ebXhtf95SyPVIs9m-58" value="&lt;pre style=&quot;font-size: 10px ; font-family: &amp;#34;consolas&amp;#34;&quot;&gt;AuthenticationInfo&lt;/pre&gt;" style="html=1;verticalAlign=bottom;endArrow=open;dashed=1;endSize=8;" edge="1" parent="1">
          <mxGeometry relative="1" as="geometry">
            <mxPoint x="375" y="390" as="sourcePoint" />
            <mxPoint x="220" y="390" as="targetPoint" />
          </mxGeometry>
        </mxCell>
        <mxCell id="KI45ebXhtf95SyPVIs9m-57" value="&lt;pre style=&quot;font-size: 10px ; font-family: &amp;#34;consolas&amp;#34;&quot;&gt;AuthenticationInfo&lt;/pre&gt;" style="html=1;verticalAlign=bottom;endArrow=open;dashed=1;endSize=8;entryX=1.074;entryY=0.42;entryDx=0;entryDy=0;entryPerimeter=0;" edge="1" parent="1" source="KI45ebXhtf95SyPVIs9m-22" target="KI45ebXhtf95SyPVIs9m-52">
          <mxGeometry x="0.2082" y="-25" relative="1" as="geometry">
            <mxPoint x="437.5" y="349.29" as="sourcePoint" />
            <mxPoint x="357.5" y="349.29" as="targetPoint" />
            <mxPoint as="offset" />
          </mxGeometry>
        </mxCell>
      </root>
    </mxGraphModel>
  </diagram>
</mxfile>
